<svg version="1.1" id="Layer_1" xmlns="http://www.w3.org/2000/svg" xmlns:xlink="http://www.w3.org/1999/xlink" x="0px" y="0px"
	 width="100%" viewBox="0 0 667 676" enable-background="new 0 0 667 676" xml:space="preserve">
<path fill="#FFFFFF" opacity="1.000000" stroke="none" 
	d="
M392.000000,677.000000 
	C261.333344,677.000000 131.166672,677.000000 1.000000,677.000000 
	C1.000000,451.666656 1.000000,226.333328 1.000000,1.000000 
	C223.333328,1.000000 445.666656,1.000000 668.000000,1.000000 
	C668.000000,226.333328 668.000000,451.666656 668.000000,677.000000 
	C576.166687,677.000000 484.333344,677.000000 392.000000,677.000000 
M61.661522,251.661774 
	C61.582703,250.822830 61.503883,249.983887 61.425068,249.144943 
	C60.936825,249.390747 60.448578,249.636551 59.536873,249.964142 
	C59.536873,249.964142 59.105831,249.949799 58.826481,249.349716 
	C58.057243,248.982681 57.288006,248.615646 55.563835,248.038895 
	C48.908241,248.025955 42.241440,247.795395 35.604111,248.137115 
	C33.695709,248.235382 31.251926,249.518494 30.103981,251.047134 
	C15.443027,270.570068 9.453901,293.251038 8.229969,317.055969 
	C7.372842,333.726685 8.257841,350.528351 9.101587,367.234344 
	C10.089900,386.802673 17.174398,404.442993 28.243111,420.482391 
	C29.328398,422.055054 31.511736,423.774384 33.246887,423.841736 
	C42.015633,424.182159 50.804733,423.998322 60.993389,423.998322 
	C59.234470,417.499878 57.671738,411.726288 56.011238,405.300720 
	C55.951939,404.866974 55.892635,404.433228 55.977367,403.230438 
	C55.354580,401.137848 54.731792,399.045258 54.013557,396.215271 
	C53.953484,395.476715 53.893410,394.738129 53.978104,393.316864 
	C53.688358,392.528748 53.398617,391.740662 53.011230,390.300629 
	C52.951931,389.866943 52.892632,389.433258 52.978092,388.316864 
	C52.688351,387.528748 52.398609,386.740662 52.013813,385.163788 
	C51.953655,384.109039 51.893494,383.054321 51.978096,381.316864 
	C51.688354,380.528748 51.398613,379.740662 51.013836,378.129456 
	C50.953671,376.752838 50.893501,375.376190 50.978092,373.316864 
	C50.688351,372.528748 50.398605,371.740662 50.013821,370.073578 
	C49.953659,367.715576 49.893497,365.357574 49.978100,362.316864 
	C49.688354,361.528748 49.398613,360.740662 49.013470,359.025543 
	C49.046261,345.698639 49.079048,332.371704 49.734718,318.732910 
	C49.767590,317.822205 49.800461,316.911469 49.978695,315.126465 
	C50.023075,312.765900 50.067455,310.405365 50.734715,307.732910 
	C50.767590,306.822205 50.800461,305.911469 50.978737,304.184418 
	C51.023102,302.804535 51.067471,301.424683 51.734718,299.732910 
	C51.767590,298.822205 51.800465,297.911469 51.978748,296.219025 
	C52.023109,295.160950 52.067471,294.102875 52.734715,292.732910 
	C52.767590,291.822205 52.800461,290.911469 52.978920,289.270844 
	C53.023224,288.528839 53.067528,287.786804 53.734718,286.732910 
	C53.767590,285.822205 53.800465,284.911469 53.980434,283.356995 
	C54.024269,282.919556 54.068104,282.482147 54.778778,281.669128 
	C55.130299,279.446381 55.481819,277.223602 55.980434,274.357056 
	C56.024269,273.919617 56.068104,273.482147 56.788101,272.654694 
	C57.469845,269.103424 58.151592,265.552124 58.980240,261.110657 
	C59.640720,258.118011 60.301201,255.125381 60.956676,252.071869 
	C60.956676,252.071869 61.099148,251.904205 61.661522,251.661774 
M278.500000,319.000000 
	C255.072495,319.000000 231.644989,319.000000 208.948456,319.000000 
	C206.895218,304.040955 205.688004,289.647430 202.789993,275.602753 
	C199.453461,259.432983 194.933960,243.493195 184.100479,230.203720 
	C179.233078,224.232880 168.376129,219.779831 160.311462,225.778336 
	C151.905838,232.030487 147.757950,240.933578 144.258194,249.861465 
	C135.061722,273.321686 132.166550,298.158875 131.138031,323.139648 
	C130.662109,334.699066 131.167252,346.361023 132.130966,357.901093 
	C133.230103,371.062988 134.735504,384.253387 137.166687,397.224792 
	C139.795120,411.248566 144.014313,424.930237 152.031723,437.035217 
	C155.969360,442.980377 160.545135,448.217834 168.342926,449.004822 
	C177.217926,449.900543 182.696945,444.358429 186.863495,438.024078 
	C198.937698,419.667786 202.957687,398.592194 205.975372,377.296631 
	C206.834488,371.233887 207.396881,365.129089 208.073135,359.237122 
	C293.074890,359.237122 377.337769,359.237122 460.893127,359.237122 
	C462.965546,372.448761 464.509644,385.415192 467.126617,398.161346 
	C470.193878,413.100464 474.619080,427.653076 484.002014,440.166565 
	C491.127411,449.669312 503.120026,452.982880 512.518188,443.041962 
	C518.940552,436.248688 522.794067,428.082581 525.985657,419.509430 
	C533.441711,399.481476 536.893738,378.488922 537.675415,357.395386 
	C538.464478,336.099640 537.532104,314.629944 535.677551,293.382782 
	C534.302246,277.626556 530.214722,262.117737 524.002747,247.356247 
	C520.668030,239.431885 516.739563,231.873566 509.878235,226.419968 
	C502.106445,220.242706 491.124695,221.183578 482.999756,232.960587 
	C471.119690,250.180664 467.227264,270.070099 464.067322,290.142822 
	C462.575226,299.620728 461.804352,309.212189 460.678162,319.000000 
	C400.101898,319.000000 339.800964,319.000000 278.500000,319.000000 
M163.983932,547.475647 
	C177.428589,559.178223 192.460220,568.551453 208.082169,576.955811 
	C225.541199,586.348572 243.922089,593.806396 263.167450,598.376709 
	C279.266602,602.199829 295.729645,604.768372 312.167542,606.782288 
	C321.871002,607.971069 331.847900,607.258179 341.685669,606.924133 
	C350.712036,606.617554 359.842407,606.393250 368.703064,604.848328 
	C384.010986,602.179260 399.317383,599.153137 414.310638,595.112488 
	C434.446655,589.685974 453.327484,580.753540 470.953827,569.780334 
	C484.588043,561.292480 497.503265,551.480591 509.921753,541.264893 
	C519.054993,533.751770 527.254822,524.979614 535.160217,516.133606 
	C542.921692,507.448639 549.786194,497.962067 557.700745,488.001099 
	C540.426208,488.001099 524.485535,487.960205 508.545990,488.078857 
	C507.271912,488.088348 505.730011,488.916779 504.780334,489.843811 
	C497.590729,496.862213 490.742157,504.243164 483.364685,511.053314 
	C464.638336,528.339600 443.163635,541.385681 419.531921,550.775818 
	C387.436188,563.529053 354.253998,570.146179 319.572235,566.949951 
	C308.851074,565.961853 298.094635,564.853455 287.516266,562.916016 
	C259.765533,557.833252 234.286911,546.873474 210.429413,531.948059 
	C192.420273,520.681458 177.124603,506.271454 162.485504,491.064178 
	C161.293167,489.825562 159.666046,488.158325 158.221848,488.139343 
	C142.337402,487.929657 126.449173,488.007629 110.016670,488.007629 
	C110.902931,489.564392 111.336899,490.612274 112.012703,491.469543 
	C118.586250,499.807373 124.674492,508.608734 131.930038,516.308350 
	C141.975372,526.968445 152.907501,536.792847 163.983932,547.475647 
M506.015533,133.523651 
	C491.903992,121.083008 476.316010,110.782486 459.736786,101.989265 
	C439.028320,91.006004 417.420105,82.240845 394.329712,77.796272 
	C380.112122,75.059578 365.779816,71.980652 351.390991,71.282814 
	C327.531433,70.125671 303.653748,70.726456 280.017181,75.846527 
	C259.657654,80.256760 239.965866,86.291290 221.045807,94.975159 
	C189.430801,109.485695 161.778763,129.502716 137.861710,154.697388 
	C132.883438,159.941574 128.154083,165.439301 123.563438,171.028320 
	C120.368660,174.917908 117.607018,179.163269 114.109398,183.999847 
	C131.298431,183.999847 147.125031,184.059341 162.949570,183.906982 
	C164.516373,183.891907 166.367447,182.911438 167.580338,181.817627 
	C173.355576,176.609329 178.840088,171.077377 184.640076,165.898026 
	C201.397369,150.933838 220.236694,139.231827 240.711349,130.002396 
	C269.658722,116.953720 300.164917,110.921318 331.680084,110.200439 
	C342.929291,109.943130 354.252899,111.788872 365.504120,113.024521 
	C385.143921,115.181435 403.831879,120.814255 422.040405,128.452866 
	C447.119324,138.973648 469.951263,153.206543 489.118805,172.252457 
	C498.208313,181.284286 507.028748,186.042511 519.493225,184.024490 
	C520.630005,183.840439 521.822388,184.000000 522.988953,184.000000 
	C532.573669,184.000000 542.158386,184.000000 552.560547,184.000000 
	C551.668335,182.617035 551.328613,181.939590 550.853394,181.376587 
	C543.341003,172.476074 536.116577,163.306168 528.192322,154.787613 
	C521.392151,147.477448 513.787170,140.915955 506.015533,133.523651 
M71.061386,279.766327 
	C70.638878,282.670197 70.166039,285.567780 69.802521,288.479004 
	C68.184601,301.436005 65.937744,314.359467 65.200699,327.367737 
	C64.566216,338.565857 65.382423,349.880127 66.087585,361.109741 
	C66.671143,370.402771 67.368500,379.778534 69.180496,388.885895 
	C73.003853,408.102570 78.522057,426.854980 86.246407,444.953827 
	C87.775017,448.535522 89.530632,449.077942 92.757057,449.046173 
	C104.580795,448.929626 116.406403,449.008972 128.231247,448.986298 
	C129.445007,448.983978 130.658401,448.792419 131.983841,448.679077 
	C94.273972,372.617859 95.371910,297.620758 135.761078,223.000000 
	C121.953575,223.000000 108.503738,223.099747 95.057465,222.924957 
	C91.965614,222.884781 90.232536,223.818542 89.016296,226.655212 
	C81.736580,243.634125 75.476204,260.944336 71.061386,279.766327 
M558.993164,300.743408 
	C559.995422,310.351929 561.917358,319.972809 561.788696,329.566162 
	C561.585876,344.683990 560.461121,359.831146 558.885254,374.877747 
	C557.121399,391.719574 552.047424,407.840027 545.758423,423.515442 
	C542.329590,432.061951 538.277222,440.358276 534.401917,448.999573 
	C548.409668,448.999573 562.214233,449.044464 576.017151,448.916656 
	C577.152588,448.906128 578.778198,447.998383 579.310608,447.031158 
	C580.782532,444.357117 581.912476,441.473572 582.971191,438.596924 
	C589.074280,422.014496 594.898926,405.339752 597.089905,387.681824 
	C598.820557,373.733276 600.748962,359.791840 601.843079,345.788940 
	C602.404785,338.599182 601.543335,331.264618 600.948608,324.026428 
	C600.171631,314.568817 599.137390,305.128021 598.009460,295.704437 
	C595.308594,273.139709 588.080872,251.848358 579.471985,230.969620 
	C576.173340,222.969681 576.099792,223.000000 567.490784,223.000000 
	C556.993042,223.000000 546.495300,223.000000 535.997559,223.000000 
	C534.412598,223.000000 532.827637,223.000000 530.668701,223.000000 
	C531.511963,224.818314 532.055725,225.956696 532.571289,227.107712 
	C538.254333,239.796783 544.617371,252.236176 549.404724,265.254913 
	C553.519348,276.444397 555.833374,288.295990 558.993164,300.743408 
M654.067322,280.323456 
	C650.146423,271.820435 646.498474,263.174133 642.151855,254.894653 
	C640.693726,252.117355 637.599182,248.530807 635.004944,248.316788 
	C625.472046,247.530258 615.835083,248.004822 605.858887,248.004822 
	C624.808472,306.692047 625.666565,365.091888 608.044434,423.998169 
	C617.829712,423.998169 627.314758,424.116821 636.790283,423.869965 
	C638.207397,423.833038 639.994873,422.374756 640.910706,421.079010 
	C655.387451,400.596527 661.199463,377.337524 661.889893,352.683075 
	C662.204590,341.446228 661.236023,330.178040 661.026123,318.920746 
	C660.783997,305.937653 658.626404,293.312256 654.067322,280.323456 
z"/>
<path fill="#20458E" opacity="1.000000" stroke="none" 
	d="
M279.000000,319.000000 
	C339.800964,319.000000 400.101898,319.000000 460.678162,319.000000 
	C461.804352,309.212189 462.575226,299.620728 464.067322,290.142822 
	C467.227264,270.070099 471.119690,250.180664 482.999756,232.960587 
	C491.124695,221.183578 502.106445,220.242706 509.878235,226.419968 
	C516.739563,231.873566 520.668030,239.431885 524.002747,247.356247 
	C530.214722,262.117737 534.302246,277.626556 535.677551,293.382782 
	C537.532104,314.629944 538.464478,336.099640 537.675415,357.395386 
	C536.893738,378.488922 533.441711,399.481476 525.985657,419.509430 
	C522.794067,428.082581 518.940552,436.248688 512.518188,443.041962 
	C503.120026,452.982880 491.127411,449.669312 484.002014,440.166565 
	C474.619080,427.653076 470.193878,413.100464 467.126617,398.161346 
	C464.509644,385.415192 462.965546,372.448761 460.893127,359.237122 
	C377.337769,359.237122 293.074890,359.237122 208.073135,359.237122 
	C207.396881,365.129089 206.834488,371.233887 205.975372,377.296631 
	C202.957687,398.592194 198.937698,419.667786 186.863495,438.024078 
	C182.696945,444.358429 177.217926,449.900543 168.342926,449.004822 
	C160.545135,448.217834 155.969360,442.980377 152.031723,437.035217 
	C144.014313,424.930237 139.795120,411.248566 137.166687,397.224792 
	C134.735504,384.253387 133.230103,371.062988 132.130966,357.901093 
	C131.167252,346.361023 130.662109,334.699066 131.138031,323.139648 
	C132.166550,298.158875 135.061722,273.321686 144.258194,249.861465 
	C147.757950,240.933578 151.905838,232.030487 160.311462,225.778336 
	C168.376129,219.779831 179.233078,224.232880 184.100479,230.203720 
	C194.933960,243.493195 199.453461,259.432983 202.789993,275.602753 
	C205.688004,289.647430 206.895218,304.040955 208.948456,319.000000 
	C231.644989,319.000000 255.072495,319.000000 279.000000,319.000000 
z"/>
<path fill="#20458E" opacity="1.000000" stroke="none" 
	d="
M163.721909,547.225342 
	C152.907501,536.792847 141.975372,526.968445 131.930038,516.308350 
	C124.674492,508.608734 118.586250,499.807373 112.012703,491.469543 
	C111.336899,490.612274 110.902931,489.564392 110.016670,488.007629 
	C126.449173,488.007629 142.337402,487.929657 158.221848,488.139343 
	C159.666046,488.158325 161.293167,489.825562 162.485504,491.064178 
	C177.124603,506.271454 192.420273,520.681458 210.429413,531.948059 
	C234.286911,546.873474 259.765533,557.833252 287.516266,562.916016 
	C298.094635,564.853455 308.851074,565.961853 319.572235,566.949951 
	C354.253998,570.146179 387.436188,563.529053 419.531921,550.775818 
	C443.163635,541.385681 464.638336,528.339600 483.364685,511.053314 
	C490.742157,504.243164 497.590729,496.862213 504.780334,489.843811 
	C505.730011,488.916779 507.271912,488.088348 508.545990,488.078857 
	C524.485535,487.960205 540.426208,488.001099 557.700745,488.001099 
	C549.786194,497.962067 542.921692,507.448639 535.160217,516.133606 
	C527.254822,524.979614 519.054993,533.751770 509.921753,541.264893 
	C497.503265,551.480591 484.588043,561.292480 470.953827,569.780334 
	C453.327484,580.753540 434.446655,589.685974 414.310638,595.112488 
	C399.317383,599.153137 384.010986,602.179260 368.703064,604.848328 
	C359.842407,606.393250 350.712036,606.617554 341.685669,606.924133 
	C331.847900,607.258179 321.871002,607.971069 312.167542,606.782288 
	C295.729645,604.768372 279.266602,602.199829 263.167450,598.376709 
	C243.922089,593.806396 225.541199,586.348572 208.082169,576.955811 
	C192.460220,568.551453 177.428589,559.178223 163.721909,547.225342 
z"/>
<path fill="#20458E" opacity="1.000000" stroke="none" 
	d="
M506.276794,133.773529 
	C513.787170,140.915955 521.392151,147.477448 528.192322,154.787613 
	C536.116577,163.306168 543.341003,172.476074 550.853394,181.376587 
	C551.328613,181.939590 551.668335,182.617035 552.560547,184.000000 
	C542.158386,184.000000 532.573669,184.000000 522.988953,184.000000 
	C521.822388,184.000000 520.630005,183.840439 519.493225,184.024490 
	C507.028748,186.042511 498.208313,181.284286 489.118805,172.252457 
	C469.951263,153.206543 447.119324,138.973648 422.040405,128.452866 
	C403.831879,120.814255 385.143921,115.181435 365.504120,113.024521 
	C354.252899,111.788872 342.929291,109.943130 331.680084,110.200439 
	C300.164917,110.921318 269.658722,116.953720 240.711349,130.002396 
	C220.236694,139.231827 201.397369,150.933838 184.640076,165.898026 
	C178.840088,171.077377 173.355576,176.609329 167.580338,181.817627 
	C166.367447,182.911438 164.516373,183.891907 162.949570,183.906982 
	C147.125031,184.059341 131.298431,183.999847 114.109398,183.999847 
	C117.607018,179.163269 120.368660,174.917908 123.563438,171.028320 
	C128.154083,165.439301 132.883438,159.941574 137.861710,154.697388 
	C161.778763,129.502716 189.430801,109.485695 221.045807,94.975159 
	C239.965866,86.291290 259.657654,80.256760 280.017181,75.846527 
	C303.653748,70.726456 327.531433,70.125671 351.390991,71.282814 
	C365.779816,71.980652 380.112122,75.059578 394.329712,77.796272 
	C417.420105,82.240845 439.028320,91.006004 459.736786,101.989265 
	C476.316010,110.782486 491.903992,121.083008 506.276794,133.773529 
z"/>
<path fill="#20458E" opacity="1.000000" stroke="none" 
	d="
M71.271103,279.392456 
	C75.476204,260.944336 81.736580,243.634125 89.016296,226.655212 
	C90.232536,223.818542 91.965614,222.884781 95.057465,222.924957 
	C108.503738,223.099747 121.953575,223.000000 135.761078,223.000000 
	C95.371910,297.620758 94.273972,372.617859 131.983841,448.679077 
	C130.658401,448.792419 129.445007,448.983978 128.231247,448.986298 
	C116.406403,449.008972 104.580795,448.929626 92.757057,449.046173 
	C89.530632,449.077942 87.775017,448.535522 86.246407,444.953827 
	C78.522057,426.854980 73.003853,408.102570 69.180496,388.885895 
	C67.368500,379.778534 66.671143,370.402771 66.087585,361.109741 
	C65.382423,349.880127 64.566216,338.565857 65.200699,327.367737 
	C65.937744,314.359467 68.184601,301.436005 69.802521,288.479004 
	C70.166039,285.567780 70.638878,282.670197 71.271103,279.392456 
z"/>
<path fill="#20458E" opacity="1.000000" stroke="none" 
	d="
M558.968384,300.299133 
	C555.833374,288.295990 553.519348,276.444397 549.404724,265.254913 
	C544.617371,252.236176 538.254333,239.796783 532.571289,227.107712 
	C532.055725,225.956696 531.511963,224.818314 530.668701,223.000000 
	C532.827637,223.000000 534.412598,223.000000 535.997559,223.000000 
	C546.495300,223.000000 556.993042,223.000000 567.490784,223.000000 
	C576.099792,223.000000 576.173340,222.969681 579.471985,230.969620 
	C588.080872,251.848358 595.308594,273.139709 598.009460,295.704437 
	C599.137390,305.128021 600.171631,314.568817 600.948608,324.026428 
	C601.543335,331.264618 602.404785,338.599182 601.843079,345.788940 
	C600.748962,359.791840 598.820557,373.733276 597.089905,387.681824 
	C594.898926,405.339752 589.074280,422.014496 582.971191,438.596924 
	C581.912476,441.473572 580.782532,444.357117 579.310608,447.031158 
	C578.778198,447.998383 577.152588,448.906128 576.017151,448.916656 
	C562.214233,449.044464 548.409668,448.999573 534.401917,448.999573 
	C538.277222,440.358276 542.329590,432.061951 545.758423,423.515442 
	C552.047424,407.840027 557.121399,391.719574 558.885254,374.877747 
	C560.461121,359.831146 561.585876,344.683990 561.788696,329.566162 
	C561.917358,319.972809 559.995422,310.351929 558.968384,300.299133 
z"/>
<path fill="#20458E" opacity="1.000000" stroke="none" 
	d="
M654.288330,280.666443 
	C658.626404,293.312256 660.783997,305.937653 661.026123,318.920746 
	C661.236023,330.178040 662.204590,341.446228 661.889893,352.683075 
	C661.199463,377.337524 655.387451,400.596527 640.910706,421.079010 
	C639.994873,422.374756 638.207397,423.833038 636.790283,423.869965 
	C627.314758,424.116821 617.829712,423.998169 608.044434,423.998169 
	C625.666565,365.091888 624.808472,306.692047 605.858887,248.004822 
	C615.835083,248.004822 625.472046,247.530258 635.004944,248.316788 
	C637.599182,248.530807 640.693726,252.117355 642.151855,254.894653 
	C646.498474,263.174133 650.146423,271.820435 654.288330,280.666443 
z"/>
<path fill="#20458E" opacity="1.000000" stroke="none" 
	d="
M55.833336,403.999481 
	C55.892635,404.433228 55.951939,404.866974 55.769997,405.852661 
	C56.240246,410.703644 56.951736,415.002686 57.778782,419.999939 
	C49.902760,419.999939 42.293503,419.834991 34.697456,420.079956 
	C31.595022,420.179993 29.870279,418.938049 28.245501,416.538055 
	C17.597231,400.809357 12.934169,382.941711 12.299981,364.489594 
	C11.629545,344.982849 12.616053,325.339355 14.176119,305.859528 
	C15.565018,288.517029 21.265575,272.276703 31.067997,257.576477 
	C33.907501,253.318176 36.945293,251.440475 42.027962,251.909698 
	C46.648705,252.336288 51.339874,252.000000 56.333332,252.000000 
	C57.111111,252.000000 57.555553,252.000000 58.364067,252.155792 
	C59.472649,252.251953 60.217163,252.192337 60.961678,252.132751 
	C60.301201,255.125381 59.640720,258.118011 58.554176,261.638947 
	C57.456059,265.793060 56.784000,269.418884 56.111938,273.044708 
	C56.068104,273.482147 56.024269,273.919617 55.562500,274.757263 
	C54.800358,277.453247 54.456150,279.748962 54.111942,282.044708 
	C54.068104,282.482147 54.024269,282.919556 53.588959,283.736816 
	C53.168938,285.092712 53.140385,286.068756 53.111832,287.044800 
	C53.067528,287.786804 53.023224,288.528839 52.588207,289.693756 
	C52.168941,291.092712 52.140388,292.068756 52.111839,293.044800 
	C52.067471,294.102875 52.023109,295.160950 51.588120,296.667847 
	C51.168938,298.092712 51.140388,299.068756 51.111835,300.044800 
	C51.067471,301.424683 51.023102,302.804535 50.588112,304.650543 
	C50.168938,306.092712 50.140388,307.068756 50.111835,308.044800 
	C50.067455,310.405365 50.023075,312.765900 49.588093,315.621582 
	C49.168938,317.092712 49.140388,318.068756 49.111835,319.044800 
	C49.079048,332.371704 49.046261,345.698639 48.795296,359.671295 
	C48.995861,361.211212 49.414597,362.105408 49.833336,362.999573 
	C49.893497,365.357574 49.953659,367.715576 49.795479,370.695312 
	C49.995869,372.211212 50.414604,373.105408 50.833336,373.999573 
	C50.893501,375.376190 50.953671,376.752838 50.795479,378.723267 
	C50.995861,380.211212 51.414597,381.105408 51.833332,381.999573 
	C51.893494,383.054321 51.953655,384.109039 51.795471,385.740417 
	C51.995869,387.211212 52.414604,388.105408 52.833336,388.999573 
	C52.892632,389.433258 52.951931,389.866943 52.794178,390.808838 
	C52.995861,392.211212 53.414597,393.105408 53.833336,393.999573 
	C53.893410,394.738129 53.953484,395.476715 53.776764,396.800781 
	C54.304428,399.590698 55.068882,401.795105 55.833336,403.999481 
z"/>
<path fill="#20458E" opacity="1.000000" stroke="none" 
	d="
M56.000000,252.000000 
	C51.339874,252.000000 46.648705,252.336288 42.027962,251.909698 
	C36.945293,251.440475 33.907501,253.318176 31.067997,257.576477 
	C21.265575,272.276703 15.565018,288.517029 14.176119,305.859528 
	C12.616053,325.339355 11.629545,344.982849 12.299981,364.489594 
	C12.934169,382.941711 17.597231,400.809357 28.245501,416.538055 
	C29.870279,418.938049 31.595022,420.179993 34.697456,420.079956 
	C42.293503,419.834991 49.902760,419.999939 57.778782,419.999939 
	C56.951736,415.002686 56.240246,410.703644 55.818878,406.178650 
	C57.671738,411.726288 59.234470,417.499878 60.993389,423.998322 
	C50.804733,423.998322 42.015633,424.182159 33.246887,423.841736 
	C31.511736,423.774384 29.328398,422.055054 28.243111,420.482391 
	C17.174398,404.442993 10.089900,386.802673 9.101587,367.234344 
	C8.257841,350.528351 7.372842,333.726685 8.229969,317.055969 
	C9.453901,293.251038 15.443027,270.570068 30.103981,251.047134 
	C31.251926,249.518494 33.695709,248.235382 35.604111,248.137115 
	C42.241440,247.795395 48.908241,248.025955 55.865780,248.595917 
	C56.111816,250.101974 56.055908,251.050980 56.000000,252.000000 
z"/>
<path fill="#20458E" opacity="1.000000" stroke="none" 
	d="
M56.450020,272.849701 
	C56.784000,269.418884 57.456059,265.793060 58.480728,262.084045 
	C58.151592,265.552124 57.469845,269.103424 56.450020,272.849701 
z"/>
<path fill="#20458E" opacity="1.000000" stroke="none" 
	d="
M54.445362,281.856934 
	C54.456150,279.748962 54.800358,277.453247 55.488953,275.079163 
	C55.481819,277.223602 55.130299,279.446381 54.445362,281.856934 
z"/>
<path fill="#20458E" opacity="1.000000" stroke="none" 
	d="
M55.905354,403.614960 
	C55.068882,401.795105 54.304428,399.590698 53.824490,397.169495 
	C54.731792,399.045258 55.354580,401.137848 55.905354,403.614960 
z"/>
<path fill="#20458E" opacity="1.000000" stroke="none" 
	d="
M56.333336,252.000000 
	C56.055908,251.050980 56.111816,250.101974 56.343246,248.700775 
	C57.288006,248.615646 58.057243,248.982681 58.704079,249.815765 
	C58.387787,250.854538 58.193890,251.427261 58.000000,252.000000 
	C57.555553,252.000000 57.111111,252.000000 56.333336,252.000000 
z"/>
<path fill="#20458E" opacity="1.000000" stroke="none" 
	d="
M51.423279,299.888855 
	C51.140388,299.068756 51.168938,298.092712 51.515411,297.058716 
	C51.800465,297.911469 51.767590,298.822205 51.423279,299.888855 
z"/>
<path fill="#20458E" opacity="1.000000" stroke="none" 
	d="
M50.423275,307.888855 
	C50.140388,307.068756 50.168938,306.092712 50.515411,305.058716 
	C50.800461,305.911469 50.767590,306.822205 50.423275,307.888855 
z"/>
<path fill="#20458E" opacity="1.000000" stroke="none" 
	d="
M49.423279,318.888855 
	C49.140388,318.068756 49.168938,317.092712 49.515411,316.058716 
	C49.800461,316.911469 49.767590,317.822205 49.423279,318.888855 
z"/>
<path fill="#20458E" opacity="1.000000" stroke="none" 
	d="
M52.423279,292.888855 
	C52.140388,292.068756 52.168941,291.092712 52.515411,290.058716 
	C52.800461,290.911469 52.767590,291.822205 52.423279,292.888855 
z"/>
<path fill="#20458E" opacity="1.000000" stroke="none" 
	d="
M49.905716,362.658203 
	C49.414597,362.105408 48.995861,361.211212 48.842999,360.134796 
	C49.398613,360.740662 49.688354,361.528748 49.905716,362.658203 
z"/>
<path fill="#20458E" opacity="1.000000" stroke="none" 
	d="
M50.905716,373.658203 
	C50.414604,373.105408 49.995869,372.211212 49.842999,371.134796 
	C50.398605,371.740662 50.688351,372.528748 50.905716,373.658203 
z"/>
<path fill="#20458E" opacity="1.000000" stroke="none" 
	d="
M51.905716,381.658203 
	C51.414597,381.105408 50.995861,380.211212 50.842995,379.134796 
	C51.398613,379.740662 51.688354,380.528748 51.905716,381.658203 
z"/>
<path fill="#20458E" opacity="1.000000" stroke="none" 
	d="
M52.905716,388.658203 
	C52.414604,388.105408 51.995869,387.211212 51.842999,386.134796 
	C52.398609,386.740662 52.688351,387.528748 52.905716,388.658203 
z"/>
<path fill="#20458E" opacity="1.000000" stroke="none" 
	d="
M53.905716,393.658203 
	C53.414597,393.105408 52.995861,392.211212 52.843002,391.134796 
	C53.398617,391.740662 53.688358,392.528748 53.905716,393.658203 
z"/>
<path fill="#20458E" opacity="1.000000" stroke="none" 
	d="
M53.423275,286.888855 
	C53.140385,286.068756 53.168938,285.092712 53.515411,284.058716 
	C53.800465,284.911469 53.767590,285.822205 53.423275,286.888855 
z"/>
<path fill="#20458E" opacity="1.000000" stroke="none" 
	d="
M58.364067,252.155792 
	C58.193890,251.427261 58.387787,250.854538 58.843758,250.115799 
	C59.105831,249.949799 59.536873,249.964142 59.933266,250.485062 
	C60.586159,251.305389 60.842651,251.604797 61.099148,251.904205 
	C61.099148,251.904205 60.956676,252.071869 60.959175,252.102295 
	C60.217163,252.192337 59.472649,252.251953 58.364067,252.155792 
z"/>
<path fill="#20458E" opacity="1.000000" stroke="none" 
	d="
M61.380333,251.782990 
	C60.842651,251.604797 60.586159,251.305389 60.144997,250.444168 
	C60.448578,249.636551 60.936825,249.390747 61.425064,249.144943 
	C61.503883,249.983887 61.582703,250.822830 61.380333,251.782990 
z"/>
</svg>